<svg width="220" height="56" viewBox="0 0 220 56" fill="none" xmlns="http://www.w3.org/2000/svg" role="img" aria-labelledby="cash-org-logo-title">
  <title id="cash-org-logo-title">Cash Org</title>
  <g stroke-linecap="round" stroke-linejoin="round">
    <path d="M38 13.5C34.9 10.7 30.8 9 26.3 9C16.7 9 9 16.7 9 26.3C9 35.9 16.7 43.6 26.3 43.6C30.8 43.6 34.9 41.9 38 39.1" stroke="#009AE0" stroke-width="6.5"/>
    <path d="M31.7 18.2H40.6C44.1 18.2 47 21.1 47 24.6V33.5C47 37 44.1 39.9 40.6 39.9H31.7C28.2 39.9 25.3 37 25.3 33.5V24.6C25.3 21.1 28.2 18.2 31.7 18.2Z" stroke="#7D3FB3" stroke-width="5"/>
    <path d="M34 31.8L37.2 28.6L40.6 32" stroke="#009AE0" stroke-width="3.8"/>
  </g>
  <path d="M68.3 18.2C71.7 18.2 74.2 19.4 76.2 21.6L73.1 24.5C71.9 23.1 70.4 22.4 68.5 22.4C64.9 22.4 62.5 25 62.5 28.6C62.5 32.2 64.9 34.8 68.5 34.8C70.4 34.8 71.9 34.1 73.1 32.7L76.2 35.6C74.2 37.8 71.7 39 68.3 39C62.1 39 57.7 34.6 57.7 28.6C57.7 22.6 62.1 18.2 68.3 18.2Z" fill="#2F3A3D"/>
  <path d="M92 38.6L90.2 34.2H81L79.2 38.6H74.3L83.2 18.6H88L97 38.6H92ZM82.6 30.5H88.7L85.7 23.2L82.6 30.5Z" fill="#2F3A3D"/>
  <path d="M105.9 39C102.7 39 99.5 38.1 97.7 36.7L99.3 33.1C101 34.3 103.6 35.1 106 35.1C108.8 35.1 109.9 34.2 109.9 32.9C109.9 29 98.1 31.7 98.1 24.2C98.1 20.8 100.9 18.2 106.6 18.2C109.1 18.2 111.7 18.8 113.5 19.9L112.1 23.6C110.2 22.6 108.3 22 106.6 22C103.8 22 102.7 23.1 102.7 24.4C102.7 28.2 114.5 25.6 114.5 33C114.5 36.4 111.7 39 105.9 39Z" fill="#2F3A3D"/>
  <path d="M131.1 18.6H135.8V38.6H131.1V30.4H122V38.6H117.3V18.6H122V26.5H131.1V18.6Z" fill="#2F3A3D"/>
  <path d="M156.8 39C150.4 39 145.8 34.6 145.8 28.6C145.8 22.6 150.4 18.2 156.8 18.2C163.1 18.2 167.7 22.5 167.7 28.6C167.7 34.7 163.1 39 156.8 39ZM156.8 34.8C160.3 34.8 162.9 32.3 162.9 28.6C162.9 24.9 160.3 22.4 156.8 22.4C153.2 22.4 150.6 24.9 150.6 28.6C150.6 32.3 153.2 34.8 156.8 34.8Z" fill="#009AE0"/>
  <path d="M187.3 38.6H182.2L178.4 33.1H174.2V38.6H169.5V18.6H178.2C183.5 18.6 186.8 21.3 186.8 25.9C186.8 28.9 185.3 31.2 182.7 32.3L187.3 38.6ZM182 25.9C182 23.7 180.6 22.4 177.9 22.4H174.2V29.4H177.9C180.6 29.4 182 28.1 182 25.9Z" fill="#009AE0"/>
  <path d="M203.1 34.1V28.3H207.4V36.4C205.2 38.1 202.2 39 199.4 39C193.1 39 188.5 34.7 188.5 28.6C188.5 22.5 193.1 18.2 199.5 18.2C203 18.2 205.9 19.4 207.9 21.7L204.9 24.5C203.4 23 201.8 22.4 199.7 22.4C195.9 22.4 193.3 24.9 193.3 28.6C193.3 32.2 195.9 34.8 199.6 34.8C200.8 34.8 202 34.6 203.1 34.1Z" fill="#009AE0"/>
</svg>
